<svg xmlns="http://www.w3.org/2000/svg" viewBox="0 0 351.88 80.8"><defs><style>.cls-1{fill:#a89968;}.cls-2{fill:#ba0c2f;}</style></defs><g id="Layer_2" data-name="Layer 2"><g id="Layer_1-2" data-name="Layer 1"><path d="M143.73,19.83v-8c0-2.24-.22-3.49-1-4.58V7.11h5.65v.16c-.75,1.09-1,2.34-1,4.58v8c0,3.78,1.9,6.3,5.58,6.3s5.58-2.34,5.58-6.26v-8c0-2.27-.22-3.58-.94-4.61V7.11h4.77v.16c-.74,1-1,2.37-1,4.61V19.8c0,5.86-3.18,9.39-8.82,9.39S143.73,25.76,143.73,19.83Z"/><path d="M165.65,28.62c.78-1,1-2.46,1-4.67V8.39l-.78-1.18v-.1h5.52l9.91,16.43h.19V11.88c0-2.18-.19-3.58-1-4.61V7.11h4.77v.16c-.78,1-1,2.43-1,4.61v16.9h-4L169.64,11.26h-.19V24c0,2.21.19,3.65,1,4.67v.16h-4.77Z"/><path d="M189.4,28.62c.72-1.09.94-2.33.94-4.58V11.85c0-2.24-.22-3.49-.94-4.58V7.11H195v.16c-.78,1.09-1,2.34-1,4.58V24c0,2.25.18,3.49,1,4.58v.16H189.4Z"/><path d="M209.6,28.78h-3.3l-6.17-16.86a15,15,0,0,0-2.31-4.65V7.11h5.89v.16c-.72,1.19-.34,2.74.41,4.8l4.3,12.07h.15L213.16,12c.84-2.18,1.15-3.52.62-4.71V7.11h4.8v.16a13.87,13.87,0,0,0-2.52,4.8Z"/><path d="M236.79,24.38v4.4H220.86v-.16c.78-1.09,1-2.36,1-4.67V11.82c0-2.21-.21-3.49-1-4.55V7.11h15.46v4h-.16c-.84-1.1-2-1.5-4.8-1.5h-5.8v7H230c2.5,0,3.49-.37,4.27-1.12h.19v4.77h-.19c-.75-.81-1.8-1.15-4.27-1.15h-4.46v7.2h6.27c2.43,0,3.87-.41,4.77-1.91Z"/><path d="M259.42,28.72v.06h-4.68L247,18.8h-1.9V24c0,2.31.19,3.55.93,4.64v.16h-5.61v-.16c.78-1.09,1-2.33,1-4.64V11.82c0-2.12-.16-3.46-1-4.55V7.11h7.89c4.8,0,7.82,2.25,7.82,5.74,0,2.65-1.87,4.71-5,5.49ZM245.05,16.37h2.62c2.9,0,4.52-1.31,4.52-3.49s-1.69-3.33-4.49-3.33h-2.65Z"/><path d="M259.92,27.1V23h.19a7.37,7.37,0,0,0,6.11,3.62c2.09,0,4.08-1.06,4.08-3.21,0-1.5-.93-2.34-2.74-3.15l-2.87-1.34c-2.87-1.31-4.27-3.27-4.27-5.74,0-3.64,3.18-6.48,7.57-6.48a10.1,10.1,0,0,1,5.4,1.46V12.1h-.19a6,6,0,0,0-5.14-2.87c-2.25,0-4,1.16-4,3.22,0,1.34.74,2.3,2.65,3.18l3,1.4c2.74,1.25,4.24,3,4.24,5.64,0,3.87-3.37,6.52-7.64,6.52A10.7,10.7,0,0,1,259.92,27.1Z"/><path d="M277.69,28.62c.72-1.09.93-2.33.93-4.58V11.85c0-2.24-.21-3.49-.93-4.58V7.11h5.64v.16c-.78,1.09-1,2.34-1,4.58V24c0,2.25.18,3.49,1,4.58v.16h-5.64Z"/><path d="M324,18A7,7,0,1,1,338,18,7,7,0,1,1,324,18Zm11.48,0c0-3.32-1.72-5.56-4.44-5.56s-4.42,2.24-4.42,5.56,1.7,5.52,4.42,5.52S335.44,21.27,335.44,18Z"/><path d="M339.88,24.79a3.51,3.51,0,0,0,.62-2.54V13.61a3.45,3.45,0,0,0-.62-2.52V11h9.28v2.56H349c-.44-.7-1.32-1-3.08-1H342.9v4.68h2.56c1.58,0,2.34-.2,2.74-.74h.12v3.06h-.12c-.4-.5-1.16-.72-2.74-.72H342.9v3.38c0,1.38.12,1.94.7,2.54v.1h-3.72Z"/><path d="M144.48,44.62c0-4.2-.49-6.33-1.74-8.24v-.22H156.6C168.94,36.16,177,43.8,177,55.1s-8.08,19-20.42,19H142.74v-.22c1.58-1.91,1.74-4.42,1.74-8.46Zm5.35,25.82h5.57c9.44,0,15.72-5.08,15.72-15.34s-6.28-15.28-15.72-15.28h-5.57Z"/><path d="M207.91,67v7.09H180.67v-.22c1.36-1.91,1.75-4.14,1.75-8.24V44.56c0-4-.33-6.33-1.75-8.18v-.22H207.2v6.38h-.28c-1.42-2-3.6-2.62-8.35-2.62H187.76V53h8.3c4.31,0,6.28-.65,7.59-2h.27v7.75h-.27c-1.31-1.41-3.28-2-7.59-2h-8.3V70.33h11.58c4.25,0,6.82-.71,8.29-3.33Z"/><path d="M213,73.87c1.37-1.91,1.69-4.25,1.69-8.24V38.29l-1.25-2v-.11h7.91l19.16,30.29h.27V44.56c0-4-.32-6.33-1.74-8.18v-.22h7.64v.22c-1.37,1.85-1.75,4.2-1.75,8.18V74.09h-5.67L219.2,42.49h-.27V65.63c0,4,.38,6.33,1.74,8.24v.22H213Z"/><path d="M268.81,74.09h-4.75L253.31,44.67c-1.31-3.54-2.4-6.22-4.09-8.29v-.22h9v.22c-1.14,2.07-.43,5,.82,8.46l8,22.21h.28L276,44.73c1.47-3.93,1.91-6.22,1.2-8.35v-.22h7.53v.22c-2,2.13-3,4.64-4.48,8.29Z"/><path d="M314.49,67v7.09H287.26v-.22C288.62,72,289,69.73,289,65.63V44.56c0-4-.33-6.33-1.74-8.18v-.22h26.52v6.38h-.27c-1.42-2-3.6-2.62-8.35-2.62H294.35V53h8.3c4.31,0,6.27-.65,7.58-2h.28v7.75h-.28c-1.31-1.41-3.27-2-7.58-2h-8.3V70.33h11.57c4.26,0,6.83-.71,8.3-3.33Z"/><path d="M351.88,74v.11H345l-14.36-17.9h-3.93v9.39c0,4.15.38,6.38,1.75,8.29v.22h-8.79v-.22c1.37-1.91,1.75-4.14,1.75-8.29V44.51c0-3.88-.33-6.28-1.75-8.13v-.22h13.26c8.35,0,13.27,4,13.27,9.88,0,4.8-3.5,8.51-9.5,9.6Zm-25.22-21.5h5.24c5.68,0,8.57-2.46,8.57-6.39,0-4.15-3-6.27-8.51-6.27h-5.3Z"/><path d="M292.31,28.61c.9-1.09,1.12-2.34,1.12-4.62V9.56h-2.18c-2.74,0-4.18.56-4.89,1.62h-.16V7.1h18.17l.26,4.08h-.19c-.72-1.06-2.12-1.62-4.86-1.62h-2.44V24c0,2.28.25,3.53,1.12,4.62v.15h-5.95Z"/><path d="M316.84,7.1h5.09v.15A18.27,18.27,0,0,0,318.34,12l-5,8.14V24c0,2.31.22,3.53,1,4.65v.15h-5.64v-.15c.75-1.12,1-2.34,1-4.65V20.1l-4.86-8.29a20.84,20.84,0,0,0-3.3-4.56V7.1h6.2v.12c-.34,1.31.28,2.75,1.28,4.49L312,17h.16l3.15-5.27c1.18-2,1.71-3.3,1.49-4.52Z"/><path class="cls-1" d="M53.17,13H29.38v4.85l2.55,1.35V52.67H53.17a2.47,2.47,0,0,0,2.46-2.47V15.46A2.47,2.47,0,0,0,53.17,13"/><path class="cls-1" d="M93,13a2.48,2.48,0,0,0-2.47,2.47V51.2a19,19,0,0,1-19,19H35A21.75,21.75,0,0,0,53.6,80.8H92.49A21.76,21.76,0,0,0,114.25,59V19.19l2.56-1.35V13Z"/><path class="cls-2" d="M68.93,0H0V4.84L3.54,6.71V59.5L0,61.37v4.84H68.93A16.44,16.44,0,0,0,85.37,49.77V16.44A16.44,16.44,0,0,0,68.93,0M61.47,51a5.88,5.88,0,0,1-5.88,5.88H26v-48H55.59a5.88,5.88,0,0,1,5.88,5.88Z"/></g></g></svg>