<svg xmlns="http://www.w3.org/2000/svg" width="493.548" height="87" xml:space="preserve"><path fill="#009BDE" d="M441.407 42.705c2.233 2.387 4.832 3.579 8.353 3.579 2.723 0 7.036-.947 7.036-4.68 0-2.908-1.948-4.252-6.996-4.252h-2.215v-2.265h2.806c4.007 0 5.67-.765 5.67-3.732 0-2.753-3.363-3.885-6.332-3.885-3.578 0-6.088 1.347-7.464 3.029l-1.898-1.683c1.774-1.836 4.039-3.61 9.453-3.61 3.702 0 8.721 1.346 8.721 5.874 0 3.366-2.355 4.406-3.702 5.017 2.05.705 4.436 1.897 4.436 5.417 0 5.322-4.741 7.037-9.789 7.037-5.753 0-8.291-2.51-9.975-4.192l1.896-1.654z"/><path fill="none" stroke="#009BDE" stroke-width="1.309" stroke-miterlimit="10" d="M441.407 42.705c2.233 2.387 4.832 3.579 8.353 3.579 2.723 0 7.036-.947 7.036-4.68 0-2.908-1.948-4.252-6.996-4.252h-2.215v-2.265h2.806c4.007 0 5.67-.765 5.67-3.732 0-2.753-3.363-3.885-6.332-3.885-3.578 0-6.088 1.347-7.464 3.029l-1.898-1.683c1.774-1.836 4.039-3.61 9.453-3.61 3.702 0 8.721 1.346 8.721 5.874 0 3.366-2.355 4.406-3.702 5.017 2.05.705 4.436 1.897 4.436 5.417 0 5.322-4.741 7.037-9.789 7.037-5.753 0-8.291-2.51-9.975-4.192l1.896-1.654z"/><path fill="#009BDE" d="M466.736 25.754h10.983c6.915 0 11.901 3.641 11.901 10.923 0 9.056-6.884 11.32-12.758 11.32h-10.127V25.754zm2.692 19.856h7.862c2.202 0 9.577-.274 9.577-9.025 0-6.516-4.62-8.444-9.148-8.444h-8.291V45.61z"/><path fill="none" stroke="#009BDE" stroke-width="1.309" stroke-miterlimit="10" d="M466.736 25.754h10.983c6.915 0 11.901 3.641 11.901 10.923 0 9.056-6.884 11.32-12.758 11.32h-10.127V25.754zm2.692 19.856h7.862c2.202 0 9.577-.274 9.577-9.025 0-6.516-4.62-8.444-9.148-8.444h-8.291V45.61z"/><path fill="#55565A" d="M117.767 30.245h-9.452v-4.477h23.679v4.477h-9.452v33.327h-4.775zm29.004-4.477h19.549v4.477h-14.775v11.986h11.947v4.478h-11.947v12.385h14.775v4.478h-19.549zm62.385 7.76c-2.687-2.438-6.118-3.88-9.75-3.88-7.909 0-14.972 6.316-14.972 15.023 0 8.802 7.262 15.02 14.972 15.02 4.179 0 7.461-1.541 10.098-4.028l3.034 3.432c-3.383 3.086-8.356 5.074-13.132 5.074-12.833 0-20.045-10.147-20.045-19.497 0-9.353 7.211-19.5 20.045-19.5 5.025 0 9.948 2.041 12.983 4.826l-3.233 3.53zm42.834-7.76h4.773v37.804h-4.773V46.461h-19.747v17.111h-4.776V25.768h4.776v16.217h19.747z"/><path fill="#99999A" d="M299.895 36.562c-.646-4.477-3.233-7.213-7.262-7.213-5.372 0-6.814 3.532-6.814 6.119 0 2.835 1.79 4.625 5.521 6.02l4.775 1.79c6.02 2.238 8.805 5.769 8.805 10.346 0 6.117-4.876 10.546-12.139 10.546-6.861 0-11.738-3.632-12.334-11.193h4.774c.398 4.129 2.486 7.016 7.81 7.016 4.129 0 7.111-2.637 7.111-5.97 0-2.934-2.436-4.826-5.867-6.167l-4.826-1.892c-5.619-2.188-8.406-5.471-8.406-10.346 0-6.515 5.424-10.445 11.64-10.445 6.269 0 11.144 3.729 11.69 11.391h-4.478zm38.239-11.391c12.834 0 20.047 10.147 20.047 19.498 0 9.352-7.213 19.5-20.047 19.5-12.833 0-20.045-10.147-20.045-19.5 0-9.35 7.212-19.498 20.045-19.498m0 34.52c7.711 0 14.974-6.068 14.974-15.022 0-8.953-7.263-15.021-14.974-15.021-7.709 0-14.972 6.068-14.972 15.021.001 8.954 7.263 15.022 14.972 15.022m34.02-33.923h19.548v4.477h-14.776v11.986h12.324v4.478h-12.324v16.863h-4.772zm42.535 4.477h-9.45v-4.477h23.676v4.477h-9.453v33.327h-4.773z"/><path fill="#006098" d="M38.978 62.417c22.06 2.221 43.89-4.964 48.76-16.047 3.84-8.741-4.019-17.292-18.33-21.609 7.983 3.257 12.906 8.193 12.96 13.716v.001c.014 1.346-.277 2.705-.863 4.038-2.093 4.765-7.755 8.873-15.941 11.567-6.559 2.158-14.108 3.199-21.729 3.038a53.993 53.993 0 0 1-5.704-.27 48.483 48.483 0 0 1-5.42-.847"/><path fill="#009BDE" d="M59.438 81.698a19.209 19.209 0 0 0 5.59-2.473c10.896-7.083 14.293-24.275 8.261-41.812-3.423-9.951-9.415-18.574-16.873-24.283-7.457-5.708-15.487-7.819-22.61-5.94a19.235 19.235 0 0 0-5.59 2.473c-4.277 2.781-7.393 7.123-9.243 12.427 2.367-3.441 5.619-5.917 9.63-6.975 12.352-3.256 27.179 8.092 33.115 25.348 5.937 17.256.735 33.885-11.616 37.141-3.94 1.04-8.129.587-12.203-1.063 7.15 5.109 14.755 6.945 21.539 5.157"/><path fill="#99999A" d="M27.931 68.198c-1.063-1.126-1.946-2.476-2.625-4.012-2.43-5.491-2.124-12.932.86-20.949 2.39-6.426 6.273-12.601 11.139-17.813a41.224 41.224 0 0 1 3.76-3.776 36.274 36.274 0 0 1 4.036-3.088c10.547-7.507 21.372-8.529 27.359-2.181 1.063 1.127 1.945 2.477 2.625 4.013a17.946 17.946 0 0 1 1.084 3.317c-.167-2.773-.739-5.364-1.758-7.671-5.648-12.771-22.764-12.097-38.228 1.508-15.465 13.605-23.421 34.987-17.772 47.76 4.456 10.071 16.041 11.774 28.325 5.376-7.517 2.852-14.445 2.139-18.805-2.484"/><path fill="#006098" d="M43.836 57.122a54.015 54.015 0 0 1-5.704-.269 48.711 48.711 0 0 1-5.42-.848c-13.754-2.54-23-9.019-23.077-16.602-.013-1.348.278-2.705.863-4.038.396-.902.921-1.781 1.565-2.63-1.888 1.715-3.329 3.588-4.209 5.591-4.87 11.083 9.064 21.871 31.123 24.089"/></svg>